<?xml version="1.0" encoding="UTF-8" standalone="no"?>
<!-- Created with Inkscape (http://www.inkscape.org/) -->

<svg
   width="149.71861mm"
   height="34.466312mm"
   viewBox="0 0 149.71861 34.466312"
   version="1.1"
   id="svg1"
   xmlns="http://www.w3.org/2000/svg"
   xmlns:svg="http://www.w3.org/2000/svg">
  <defs
     id="defs1" />
  <g
     id="layer1"
     transform="translate(-30.140697,-131.26684)">
    <path
       fill="#ffffff"
       style="font-weight:600;font-size:35.2777px;font-family:'Fira Sans';-inkscape-font-specification:'Fira Sans Semi-Bold';stroke-width:0.264583"
       d="m 50.354818,138.71044 q 2.222495,0 3.563048,1.51694 1.37583,1.51694 1.37583,4.12749 v 13.61719 h -5.009433 v -12.77053 q 0,-2.75166 -1.83444,-2.75166 -0.987776,0 -1.728608,0.67028 -0.740831,0.635 -1.481663,1.94027 v 12.91164 h -5.009433 v -12.77053 q 0,-2.75166 -1.83444,-2.75166 -0.987776,0 -1.763885,0.67028 -0.740832,0.635 -1.481664,1.94027 v 12.91164 h -5.009433 v -18.69718 h 4.374435 l 0.352777,2.36361 q 2.151939,-2.92805 5.432765,-2.92805 1.587497,0 2.751661,0.81138 1.164164,0.77611 1.728607,2.25778 1.128886,-1.51694 2.469439,-2.29305 1.340552,-0.77611 3.104437,-0.77611 z m 15.804424,0 q 3.951102,0 6.773318,2.25777 l -1.904995,2.85749 q -2.363606,-1.48166 -4.656657,-1.48166 -1.234719,0 -1.904995,0.45861 -0.670277,0.45861 -0.670277,1.23472 0,0.56444 0.282222,0.9525 0.317499,0.38805 1.128886,0.74083 0.846665,0.35278 2.504717,0.84666 2.963327,0.81139 4.409712,2.18722 1.446386,1.34055 1.446386,3.70416 0,1.86972 -1.093609,3.24555 -1.058331,1.37583 -2.892771,2.11666 -1.83444,0.70555 -4.092213,0.70555 -2.363606,0 -4.303879,-0.70555 -1.940274,-0.74083 -3.316104,-2.01083 l 2.469439,-2.75166 q 2.363606,1.83444 5.009433,1.83444 1.411108,0 2.222495,-0.52916 0.846665,-0.56445 0.846665,-1.51695 0,-0.74083 -0.317499,-1.16416 -0.3175,-0.42333 -1.164164,-0.77611 -0.846665,-0.38805 -2.645828,-0.88194 -2.822216,-0.77611 -4.198046,-2.18722 -1.340552,-1.44638 -1.340552,-3.56305 0,-1.58749 0.91722,-2.85749 0.91722,-1.27 2.575272,-1.97555 1.693329,-0.74083 3.915824,-0.74083 z m 20.990205,0 q 2.469439,0 3.845269,1.51694 1.411108,1.48166 1.411108,4.12749 v 13.61719 h -5.009433 v -12.77053 q 0,-1.51694 -0.529165,-2.11666 -0.529166,-0.635 -1.552219,-0.635 -1.023053,0 -1.904996,0.67028 -0.881942,0.635 -1.693329,1.905 v 12.94691 h -5.009434 v -26.14077 l 5.009434,-0.52917 v 10.1247 q 2.222495,-2.71638 5.432765,-2.71638 z m 9.136954,6.24415 h 10.936089 v 3.9511 H 96.286401 Z m 25.152999,-6.24415 q 3.3161,0 5.11527,2.61055 1.83444,2.61055 1.83444,7.30248 0,2.89277 -0.91722,5.15055 -0.88195,2.25777 -2.57528,3.52776 -1.65805,1.23472 -3.9511,1.23472 -1.51694,0 -2.78694,-0.63499 -1.23472,-0.635 -2.11666,-1.79917 l -0.28222,1.86972 h -4.44499 v -26.14077 l 5.00943,-0.56445 v 10.01887 q 0.88195,-1.19944 2.2225,-1.86972 1.34055,-0.70555 2.89277,-0.70555 z m -1.905,16.12191 q 3.63361,0 3.63361,-6.20888 0,-3.42194 -0.88195,-4.79777 -0.88194,-1.4111 -2.50471,-1.4111 -2.04611,0 -3.45722,2.43416 v 7.97276 q 0.59972,0.9525 1.41111,1.48166 0.84667,0.52917 1.79916,0.52917 z m 17.21553,3.70415 q -2.29305,0 -3.56305,-1.30527 -1.27,-1.34055 -1.27,-3.77471 v -21.62523 l 5.00944,-0.56445 v 22.04856 q 0,0.635 0.24694,0.9525 0.24695,0.28222 0.77611,0.28222 0.56444,0 0.98778,-0.21166 l 1.02305,3.56305 q -1.44639,0.63499 -3.21027,0.63499 z m 13.65251,-19.82606 q 4.19804,0 6.56165,2.64583 2.3636,2.61054 2.3636,7.2672 0,2.96333 -1.0936,5.2211 -1.05834,2.2225 -3.10444,3.45721 -2.01083,1.23472 -4.76249,1.23472 -4.19805,0 -6.59693,-2.61055 -2.36361,-2.64582 -2.36361,-7.30248 0,-2.96333 1.05833,-5.18582 1.09361,-2.25777 3.10444,-3.49249 2.04611,-1.23472 4.83305,-1.23472 z m 0,3.73943 q -1.905,0 -2.8575,1.51694 -0.91722,1.48167 -0.91722,4.65666 0,3.17499 0.91722,4.69193 0.9525,1.48167 2.82222,1.48167 1.86972,0 2.78694,-1.48167 0.95249,-1.51694 0.95249,-4.69193 0,-3.17499 -0.91722,-4.65666 -0.91722,-1.51694 -2.78693,-1.51694 z m 29.45686,-2.15194 q -1.83444,0.70556 -5.39748,0.70556 1.76388,0.77611 2.61055,1.94027 0.84666,1.12889 0.84666,2.8575 0,1.79916 -0.9525,3.24554 -0.91722,1.41111 -2.6811,2.2225 -1.72861,0.81139 -4.05694,0.81139 -1.23472,0 -2.18722,-0.24695 -0.70555,0.45861 -0.70555,1.23472 0,0.56444 0.42333,0.91722 0.45861,0.3175 1.72861,0.3175 h 2.85749 q 2.08139,0 3.63361,0.70555 1.58749,0.67028 2.43416,1.905 0.88194,1.19944 0.88194,2.75166 0,2.85749 -2.46944,4.44499 -2.43416,1.62277 -7.05554,1.62277 -3.3161,0 -5.25638,-0.70555 -1.90499,-0.67028 -2.6811,-1.97555 -0.77611,-1.30528 -0.77611,-3.28083 h 4.48027 q 0,0.91722 0.35278,1.44639 0.35277,0.56444 1.26999,0.81139 0.9525,0.28222 2.71639,0.28222 2.43416,0 3.38665,-0.59972 0.98778,-0.59972 0.98778,-1.69333 0,-0.98778 -0.74083,-1.51694 -0.74083,-0.52917 -2.18722,-0.52917 h -2.75166 q -2.78694,0 -4.16277,-1.02305 -1.37583,-1.05833 -1.37583,-2.64583 0,-0.98778 0.56444,-1.905 0.59973,-0.95249 1.62278,-1.58749 -1.72861,-0.9525 -2.54,-2.2225 -0.7761,-1.30527 -0.7761,-3.10443 0,-2.04611 0.98777,-3.56305 1.02305,-1.55222 2.82222,-2.36361 1.83444,-0.84666 4.16277,-0.84666 2.89277,0.0705 4.76248,-0.49389 1.86972,-0.56444 3.98638,-1.76388 z m -9.87775,1.76389 q -1.41111,0 -2.25777,0.91722 -0.81139,0.88194 -0.81139,2.43416 0,1.5875 0.81139,2.50472 0.84666,0.91722 2.29305,0.91722 1.51694,0 2.29305,-0.88195 0.77611,-0.88194 0.77611,-2.61054 0,-3.28083 -3.10444,-3.28083 z"
       id="text2"
       aria-label="msh-blog" />
  </g>
</svg>
